<svg width="28" height="28" viewBox="0 0 28 28" fill="none" xmlns="http://www.w3.org/2000/svg">
<path d="M5.83333 21.875L5.83332 21.8738C5.83308 21.8515 5.831 21.6651 6.23035 21.2965C6.65382 20.9056 7.35249 20.4878 8.30356 20.1068C10.2095 19.3433 12.5395 18.9583 14 18.9583C15.4605 18.9583 17.7905 19.3433 19.6964 20.1068C20.6475 20.4878 21.3462 20.9056 21.7696 21.2965C22.169 21.6651 22.1669 21.8515 22.1667 21.8738L22.1667 21.875V24.5H24.5V21.875C24.5 18.3837 17.5044 16.625 14 16.625C10.4956 16.625 3.5 18.3837 3.5 21.875V24.5H5.83333V21.875Z" fill="#25282B"/>
<path fill-rule="evenodd" clip-rule="evenodd" d="M14 14C16.9006 14 19.25 11.6506 19.25 8.75C19.25 5.84938 16.9006 3.5 14 3.5C11.0994 3.5 8.75 5.84938 8.75 8.75C8.75 11.6506 11.0994 14 14 14ZM16.9167 8.75C16.9167 10.362 15.612 11.6667 14 11.6667C12.388 11.6667 11.0833 10.362 11.0833 8.75C11.0833 7.13804 12.388 5.83333 14 5.83333C15.612 5.83333 16.9167 7.13804 16.9167 8.75Z" fill="#25282B"/>
</svg>
