<svg width="22" height="22" viewBox="0 0 22 22" fill="none" xmlns="http://www.w3.org/2000/svg">
<path fill-rule="evenodd" clip-rule="evenodd" d="M17.1508 10.0147C17.1508 13.9558 13.9558 17.1508 10.0147 17.1508C6.07359 17.1508 2.87868 13.9558 2.87868 10.0147C2.87868 6.07359 6.07359 2.87868 10.0147 2.87868C13.9558 2.87868 17.1508 6.07359 17.1508 10.0147ZM15.8492 17.5312C14.238 18.7836 12.2135 19.5294 10.0147 19.5294C4.75988 19.5294 0.5 15.2696 0.5 10.0147C0.5 4.75988 4.75988 0.5 10.0147 0.5C15.2696 0.5 19.5294 4.75988 19.5294 10.0147C19.5294 12.2135 18.7836 14.238 17.5312 15.8492L21.5 19.818L19.818 21.5L15.8492 17.5312Z" fill="#25282B"/>
</svg>
