<svg width="161" height="118" viewBox="0 0 161 118" fill="none" xmlns="http://www.w3.org/2000/svg">
<path d="M49.608 32.36H46.44C49.104 34.952 50.76 38.624 50.4 43.736C49.68 52.88 41.904 57.992 32.688 57.848H29.088C21.888 57.848 8.28 55.904 8.28 41.936C8.28 37.832 9.648 34.736 11.808 32.36H9.936C7.704 32.36 5.904 30.488 5.904 28.184C5.904 25.88 7.704 24.008 9.936 24.008H23.976V21.704C23.976 19.688 24.84 17.672 29.448 17.672C34.128 17.672 34.92 19.688 34.92 21.704V24.008H49.608C51.84 24.008 53.712 25.88 53.712 28.184C53.712 30.488 51.84 32.36 49.608 32.36ZM40.248 44.312C41.328 37.544 36.576 34.736 30.384 34.376C24.984 34.16 18.792 35.528 18.432 41C18 47.624 22.824 50 29.232 50C34.344 50 39.528 48.992 40.248 44.312Z" fill="#090909"/>
<path d="M147.608 44.36H144.44C147.104 46.952 148.76 50.624 148.4 55.736C147.68 64.88 139.904 69.992 130.688 69.848H127.088C119.888 69.848 106.28 67.904 106.28 53.936C106.28 49.832 107.648 46.736 109.808 44.36H107.936C105.704 44.36 103.904 42.488 103.904 40.184C103.904 37.88 105.704 36.008 107.936 36.008H121.976V33.704C121.976 31.688 122.84 29.672 127.448 29.672C132.128 29.672 132.92 31.688 132.92 33.704V36.008H147.608C149.84 36.008 151.712 37.88 151.712 40.184C151.712 42.488 149.84 44.36 147.608 44.36ZM138.248 56.312C139.328 49.544 134.576 46.736 128.384 46.376C122.984 46.16 116.792 47.528 116.432 53C116 59.624 120.824 62 127.232 62C132.344 62 137.528 60.992 138.248 56.312Z" fill="#090909"/>
<path d="M67.264 77L84.256 77.072C85.264 77.144 86.056 77.144 86.344 76.136C86.416 75.128 86.416 71.672 86.488 70.88C86.56 69.152 87.064 68.144 88.864 67.784C90.88 67.352 93.616 67.496 94.696 68.432C95.632 69.296 95.488 74.624 95.488 75.776C95.344 80.168 95.704 89.96 95.272 94.352C95.056 97.16 93.472 98.96 90.736 99.392C89.296 99.608 87.784 99.536 86.344 99.536C74.464 99.608 63.52 99.896 59.272 99.68C57.256 99.608 55.024 99.536 53.368 98.312C51.208 96.656 51.136 91.4 51.136 91.184V76.496C51.136 74.624 50.848 72.608 51.208 70.736C51.712 68.504 53.512 67.928 55.672 67.784C57.328 67.712 59.776 68.144 60.136 70.088C60.28 70.952 59.992 75.632 60.352 76.424C60.568 76.928 61.576 77 62.08 77.072C64.312 77.216 65.032 77 67.264 77ZM60.352 90.464C60.712 91.904 62.8 91.904 64.384 91.976C64.312 91.904 80.224 91.76 81.088 91.904C81.88 91.976 82.672 91.904 83.464 91.976C84.472 92.048 86.2 92.408 86.2 90.824C86.2 90.104 86.344 87.152 85.984 85.784C85.696 84.632 85.048 84.704 84.112 84.776C83.68 84.776 82.312 84.848 81.88 84.776H64.96C63.16 84.704 60.496 84.344 60.28 86.576C60.28 87.08 60.28 90.104 60.352 90.464Z" fill="#090909"/>
</svg>
